<?xml version="1.0" encoding="iso-8859-1"?>
<!-- Generator: Adobe Illustrator 19.0.0, SVG Export Plug-In . SVG Version: 6.00 Build 0)  -->
<svg version="1.1" id="Capa_1" xmlns="http://www.w3.org/2000/svg" xmlns:xlink="http://www.w3.org/1999/xlink" x="0px" y="0px"
	 viewBox="0 0 509.287 509.287" style="enable-background:new 0 0 509.287 509.287;" xml:space="preserve">
<path style="fill:#646B79;" d="M37.976,388.238C82.734,460.8,163.094,509.287,254.644,509.287s171.91-48.487,216.668-121.049
	L37.976,388.238L37.976,388.238z"/>
<path style="fill:#3EB9E3;" d="M509.287,254.644C509.287,113.928,395.359,0,254.644,0S0,113.928,0,254.644
	c0,49.166,13.902,94.601,37.976,133.595h433.335C495.385,349.245,509.287,303.809,509.287,254.644z"/>
<path style="fill:#FCCE68;" d="M76.291,31.873v356.366h114.268V243.454c0-35.264,28.482-64.085,64.085-64.085l0,0
	c35.264,0,64.085,28.482,64.085,64.085v144.784h114.268V31.873H76.291z"/>
<g>
	<path style="fill:#E0B153;" d="M442.151,31.873H67.136c-8.138,0-14.919,6.781-14.919,14.919s6.781,14.919,14.919,14.919h374.675
		c8.138,0,14.919-6.781,14.919-14.919S450.289,31.873,442.151,31.873z"/>
	<path style="fill:#E0B153;" d="M442.151,113.25H67.136c-8.138,0-14.919,6.781-14.919,14.919s6.781,14.919,14.919,14.919h374.675
		c8.138,0,14.919-6.781,14.919-14.919S450.289,113.25,442.151,113.25z"/>
	<path style="fill:#E0B153;" d="M196.323,241.759H68.832c-6.442,0-11.868,5.425-11.868,11.868c0,6.442,5.425,11.868,11.868,11.868
		h127.491c6.442,0,11.868-5.425,11.868-11.868C208.191,246.845,202.766,241.759,196.323,241.759z"/>
	<path style="fill:#E0B153;" d="M440.456,241.759H312.964c-6.442,0-11.868,5.425-11.868,11.868c0,6.442,5.425,11.868,11.868,11.868
		h127.491c6.442,0,11.868-5.425,11.868-11.868C452.323,246.845,447.237,241.759,440.456,241.759z"/>
	<rect x="100.366" y="164.45" style="fill:#E0B153;" width="62.389" height="57.303"/>
	<rect x="100.366" y="286.177" style="fill:#E0B153;" width="62.389" height="102.061"/>
	<rect x="346.532" y="286.177" style="fill:#E0B153;" width="62.389" height="102.061"/>
	<rect x="346.532" y="164.45" style="fill:#E0B153;" width="62.389" height="57.303"/>
	<rect x="98.67" y="75.613" style="fill:#E0B153;" width="10.172" height="27.465"/>
	<rect x="132.238" y="75.613" style="fill:#E0B153;" width="10.172" height="27.465"/>
	<rect x="165.807" y="75.613" style="fill:#E0B153;" width="10.172" height="27.465"/>
	<rect x="199.375" y="75.613" style="fill:#E0B153;" width="10.172" height="27.465"/>
	<rect x="232.943" y="75.613" style="fill:#E0B153;" width="10.172" height="27.465"/>
	<rect x="266.172" y="75.613" style="fill:#E0B153;" width="10.172" height="27.465"/>
	<rect x="299.74" y="75.613" style="fill:#E0B153;" width="10.172" height="27.465"/>
	<rect x="333.309" y="75.613" style="fill:#E0B153;" width="10.172" height="27.465"/>
	<rect x="366.877" y="75.613" style="fill:#E0B153;" width="10.172" height="27.465"/>
	<rect x="400.445" y="75.613" style="fill:#E0B153;" width="10.172" height="27.465"/>
</g>
<g>
</g>
<g>
</g>
<g>
</g>
<g>
</g>
<g>
</g>
<g>
</g>
<g>
</g>
<g>
</g>
<g>
</g>
<g>
</g>
<g>
</g>
<g>
</g>
<g>
</g>
<g>
</g>
<g>
</g>
</svg>
